<svg width="42" height="37" viewBox="0 0 42 37" fill="none" xmlns="http://www.w3.org/2000/svg">
<path fill-rule="evenodd" clip-rule="evenodd" d="M1.4999 0C1.1021 0 0.720598 0.162417 0.439312 0.45152C0.158025 0.740623 0 1.13273 0 1.54159V16.3408C0 17.353 0.193981 18.3553 0.570867 19.2905C0.947753 20.2257 1.50016 21.0754 2.19656 21.7911C3.60299 23.2367 5.51052 24.0487 7.49952 24.0487H36.8766L26.8363 34.365C26.5546 34.6545 26.3964 35.0471 26.3964 35.4565C26.3964 35.8658 26.5546 36.2584 26.8363 36.5479C27.1179 36.8374 27.4999 37 27.8982 37C28.2965 37 28.6785 36.8374 28.9602 36.5479L41.5593 23.5986C41.699 23.4554 41.8098 23.2853 41.8855 23.098C41.9611 22.9107 42 22.7099 42 22.5072C42 22.3044 41.9611 22.1036 41.8855 21.9163C41.8098 21.729 41.699 21.5589 41.5593 21.4157L29.5601 9.08302C29.2785 8.79355 28.8965 8.63093 28.4982 8.63093C28.0999 8.63093 27.7179 8.79355 27.4362 9.08302C27.1546 9.37249 26.9964 9.76509 26.9964 10.1745C26.9964 10.5838 27.1546 10.9764 27.4362 11.2659L36.8766 20.9656H7.49952C6.30612 20.9656 5.1616 20.4783 4.31774 19.611C3.47388 18.7437 2.99981 17.5674 2.99981 16.3408V1.54159C2.99981 1.13273 2.84178 0.740623 2.5605 0.45152C2.27921 0.162417 1.8977 0 1.4999 0Z" fill="white"/>
</svg>
