<svg width="103" height="57" viewBox="0 0 103 57" fill="none" xmlns="http://www.w3.org/2000/svg">
<path d="M32.3486 18.9095C32.3486 18.9095 30.9662 20.6234 29.9753 22.4206C28.9845 24.2178 26.8281 25.5032 25.515 25.5955C24.2019 25.6877 22.2052 25.5003 21.1089 24.6046C20.0097 23.706 18.3834 22.2748 18.4225 19.097C18.4617 15.9192 20.347 13.5358 22.0576 12.8931C23.7683 12.2504 26.8974 12.1284 28.5267 13.9791C30.156 15.8299 32.0112 18.7072 29.5176 20.1295C29.5176 20.1295 28.2015 20.6651 27.0359 19.2577C25.8704 17.8503 25.2048 17.3415 25.2048 17.3415C25.2048 17.3415 24.3646 16.7791 23.9971 17.6896C23.6297 18.6001 24.7019 19.9004 23.8345 20.1414C22.9671 20.3824 21.5426 19.2577 23.0334 17.2343C23.0334 17.2343 24.0754 16.2286 25.3855 17.0469C26.6956 17.8651 26.9516 18.4394 26.9516 18.4394C26.9516 18.4394 27.7377 18.9214 27.4395 17.8235C27.1413 16.7255 25.8011 13.5894 24.2802 13.1341C22.7593 12.6789 21.7986 13.149 21.2836 14.7677C20.7686 16.3863 21.0788 20.9567 23.0454 23.1556C25.0121 25.3545 25.2952 25.3247 26.6535 24.8843C28.0087 24.441 27.9545 21.7363 27.9545 21.7363C27.9545 21.7363 27.6955 20.4508 28.9032 20.7305C30.1109 21.0102 32.3486 17.6212 32.3486 17.6212V18.9095Z" fill="black"/>
<path d="M63.6219 21.2126C63.6219 21.2126 62.4474 19.2101 68.1726 18.2549C68.1726 18.2549 71.4011 17.9366 70.3741 14.6576C69.3472 11.3786 63.7996 11.7267 62.1552 13.5566C60.5109 15.3866 58.5743 17.7342 60.5711 22.4325C62.5678 27.1308 70.5789 27.2469 70.5789 27.2469C70.5789 27.2469 77.5691 26.6964 78.831 26.1727C80.0929 25.652 84.3514 26.0864 85.5531 27.0713C86.7547 28.0562 88.3118 27.1874 88.3419 26.3751C88.372 25.5627 88.2545 24.2565 85.2007 24.4618C82.1468 24.6641 80.8849 25.7383 77.5962 26.0269C74.3074 26.3155 70.2567 26.9255 66.7932 25.0123C66.7932 25.0123 63.3599 23.2419 62.86 19.2101C62.86 19.2101 61.4806 14.7438 63.4473 13.149C65.4139 11.5541 66.9709 14.0178 66.9709 14.0178C66.9709 14.0178 68.3503 16.3685 66.2963 17.5854C64.2423 18.8024 63.6009 19.9867 63.6009 19.9867C63.6009 19.9867 63.1883 20.8496 63.625 21.2126H63.6219Z" fill="black"/>
<path d="M64.0918 35.5723C64.0918 35.5723 64.6971 35.6675 64.5766 38.1372C64.4562 40.6068 64.5766 50.4051 64.5766 50.4051C64.5766 50.4051 64.6489 51.0032 64.2122 51.4347H68.0943C68.0943 51.4347 67.5612 51.1698 67.5853 50.3575C67.6094 49.5452 67.5853 33.7751 67.5853 33.7751L64.0918 35.5723Z" fill="black"/>
<path d="M38.658 32.6295C38.658 32.6295 40.7271 32.6652 42.1335 29.297V42.3386C42.1335 42.3386 43.034 40.0802 45.2085 40.104C47.3799 40.1248 49.7411 40.345 49.9308 43.3235V51.7709C49.9308 51.7709 49.8826 52.604 50.4307 52.9432H46.4282C46.4282 52.9432 46.9281 52.8183 47.0366 51.6935C47.145 50.5688 47.0366 43.139 47.0366 43.139C47.0366 43.139 47.0215 40.8241 44.8471 40.6068C44.8471 40.6068 43.3262 40.3837 42.1968 42.5617L42.1456 42.654V51.7411C42.1456 51.7411 42.0613 52.6487 42.757 52.9462H38.652C38.652 52.9462 39.1068 52.613 39.1791 51.6965V34.2899C39.1791 34.2899 39.2152 33.0491 38.652 32.6295H38.658Z" fill="black"/>
<path d="M43.6093 12.0867V20.7781C43.6093 20.7781 43.5249 24.8784 48.2924 24.8427C48.2924 24.8427 46.7023 24.7594 46.6059 21.3911L46.6179 12.0897C46.6179 12.0897 50.0151 12.2206 51.5812 11.0453C53.1473 9.86999 53.7285 9.2005 53.2316 7.0522C53.2316 7.0522 52.4305 4.61824 49.3857 4.77595C46.3409 4.93365 45.0669 6.22501 45.0669 6.22501C45.0669 6.22501 41.8745 9.0071 39.8868 9.34333C37.8991 9.67956 37.3751 8.79286 37.3751 8.79286C37.3751 8.79286 36.333 6.93615 35.4687 6.86177C34.6043 6.78738 32.0112 9.37903 32.0112 9.37903C32.0112 9.37903 31.3065 9.9295 31.9269 10.6615C32.5473 11.3934 33.7098 10.5067 33.8936 9.65575C34.0773 8.80476 34.1977 8.81667 34.4146 9.22431C34.6314 9.63195 36.7818 11.2506 38.6008 10.4472C40.4199 9.64385 42.9919 8.03709 42.9919 8.03709C42.9919 8.03709 45.9644 5.33831 47.7594 5.18359C49.5543 5.02886 51.3132 6.45412 50.9819 8.67979C50.6506 10.9055 48.6779 11.6315 48.6779 11.6315C48.6779 11.6315 48.2141 11.9439 46.621 11.9171V9.10529C46.621 9.10529 45.3982 11.8011 42.7148 12.051L43.6123 12.0897L43.6093 12.0867Z" fill="black"/>
<path d="M49.4038 15.8686C49.4038 15.8686 50.0091 15.9221 49.8886 17.3176C49.7682 18.7132 49.8886 24.2595 49.8886 24.2595C49.8886 24.2595 49.9609 24.5987 49.5242 24.8427H53.4063C53.4063 24.8427 52.8732 24.6939 52.8973 24.2327C52.9214 23.7715 52.8973 14.851 52.8973 14.851L49.4038 15.8686Z" fill="black"/>
<path d="M49.476 14.851C49.476 14.851 52.2799 14.2945 52.6684 13.8542C53.0569 13.4138 53.0359 11.8279 52.2046 12.3456C51.3734 12.8633 49.476 14.8539 49.476 14.8539V14.851Z" fill="black"/>
<path d="M59.4357 12.5479L58.222 12.0004C58.1136 11.9469 58.0473 11.8398 58.0473 11.7207V9.10231C58.0473 9.10231 56.8246 11.7981 54.1411 12.0481L55.0386 12.0867V20.7781C55.0386 20.7781 54.9543 24.8784 59.7218 24.8427C59.7218 24.8427 58.1316 24.7594 58.0353 21.3911L58.0473 12.786" fill="black"/>
<path d="M35.6976 21.5071C35.6976 21.5071 34.523 19.5046 40.2482 18.5495C40.2482 18.5495 43.4767 18.2311 42.4498 14.9521C41.4228 11.6731 35.8752 12.0213 34.2309 13.8512C32.5865 15.6811 30.65 18.0288 32.6467 22.7271C34.6435 27.4254 42.6546 27.5414 42.6546 27.5414C42.6546 27.5414 48.1509 27.5147 50.4488 30.5735C51.4607 31.9214 56.1951 27.6396 57.3968 28.6275C58.5984 29.6154 60.3904 28.5591 60.4205 27.7468C60.4506 26.9344 59.773 25.8127 56.7191 26.015C53.6653 26.2174 53.0539 26.6964 49.7682 26.988C46.4794 27.2766 42.3353 27.226 38.8689 25.3098C38.8689 25.3098 35.4355 23.5394 34.9356 19.5076C34.9356 19.5076 33.5562 15.0414 35.5229 13.4465C37.4895 11.8517 39.0466 14.3154 39.0466 14.3154C39.0466 14.3154 40.4259 16.666 38.3719 17.883C36.318 19.1 35.6765 20.2842 35.6765 20.2842C35.6765 20.2842 35.2639 21.1471 35.7006 21.5101L35.6976 21.5071Z" fill="black"/>
<path d="M25.9096 46.2365C25.9096 46.2365 24.5272 47.9504 23.5364 49.7476C22.5455 51.5418 20.3891 52.8302 19.076 52.9224C17.7629 53.0146 15.7662 52.8272 14.6699 51.9316C13.5707 51.033 11.9444 49.6018 11.9835 46.4239C12.0227 43.2461 13.908 40.8627 15.6186 40.22C17.3293 39.5773 20.4584 39.4553 22.0877 41.3061C23.7171 43.1568 25.5723 46.0341 23.0786 47.4564C23.0786 47.4564 21.7625 47.992 20.5969 46.5846C19.4314 45.1772 18.7658 44.6684 18.7658 44.6684C18.7658 44.6684 17.9256 44.106 17.5581 45.0165C17.1907 45.927 18.2629 47.2273 17.3955 47.4683C16.5282 47.7093 15.1036 46.5846 16.5944 44.5613C16.5944 44.5613 17.6365 43.5556 18.9465 44.3738C20.2566 45.1921 20.5126 45.7663 20.5126 45.7663C20.5126 45.7663 21.2987 46.2484 21.0005 45.1504C20.7024 44.0525 19.3622 40.9163 17.8412 40.461C16.3203 40.0058 15.3596 40.4759 14.8446 42.0946C14.3296 43.7133 14.6398 48.2836 16.6065 50.4825C18.5731 52.6814 18.8562 52.6516 20.2145 52.2113C21.5697 51.7679 21.5155 49.0632 21.5155 49.0632C21.5155 49.0632 21.2565 47.7778 22.4642 48.0575C23.6719 48.3372 25.9096 44.9481 25.9096 44.9481V46.2365Z" fill="black"/>
<path d="M28.3008 42.6986C28.3008 42.6986 29.0839 38.399 32.2522 41.0651C35.4205 43.7311 34.6525 45.7247 34.6525 45.7247C34.6525 45.7247 34.0622 46.8762 35.3994 47.4267C36.7366 47.9771 38.3749 46.7393 37.7485 44.7606C37.1221 42.7819 35.1555 38.7442 29.8489 39.9969C29.8489 39.9969 26.5782 40.9252 25.6536 45.1028C25.6536 45.1028 24.8886 49.0572 27.569 51.2055C30.2494 53.3539 33.6948 53.6812 35.6945 51.396C37.6943 49.1108 39.5585 46.0996 39.5585 46.0996V45.0522C39.5585 45.0522 36.6884 51.0181 34.0261 52.1369C31.3637 53.2557 30.2855 50.6402 29.3278 49.0424C28.3701 47.4445 28.1111 44.5196 28.3008 42.6986Z" fill="black"/>
<path d="M55.6801 48.9114C55.6801 48.9114 54.5056 46.9089 60.2308 45.9538C60.2308 45.9538 63.4593 45.6354 62.4323 42.3564C61.4053 39.0774 55.8578 39.4256 54.2134 41.2555C52.569 43.0824 50.6325 45.4331 52.6293 50.1314C54.626 54.8297 62.6371 54.9457 62.6371 54.9457C62.6371 54.9457 69.6273 54.3953 70.8891 53.8716C72.151 53.3509 76.4096 53.7853 77.6112 54.7702C78.8129 55.7551 80.3699 54.8862 80.4001 54.0739C80.4302 53.2616 80.3127 51.9554 77.2589 52.1607C74.205 52.363 72.9431 53.4372 69.6544 53.7258C66.3656 54.0144 62.3149 54.6244 58.8514 52.7111C58.8514 52.7111 55.4181 50.9407 54.9182 46.9089C54.9182 46.9089 53.5388 42.4427 55.5054 40.8479C57.4721 39.253 59.0291 41.7167 59.0291 41.7167C59.0291 41.7167 60.4085 44.0673 58.3545 45.2843C56.3005 46.5013 55.659 47.6855 55.659 47.6855C55.659 47.6855 55.2464 48.5484 55.6831 48.9114H55.6801Z" fill="black"/>
<path d="M69.1966 35.5723C69.1966 35.5723 69.8019 35.6675 69.6815 38.1372C69.561 40.6068 69.6815 50.4051 69.6815 50.4051C69.6815 50.4051 69.7537 51.0032 69.317 51.4347H73.1991C73.1991 51.4347 72.666 51.1698 72.6901 50.3575C72.7142 49.5422 72.6901 33.7751 72.6901 33.7751L69.1966 35.5723Z" fill="black"/>
<path d="M78.2768 47.7331C78.2768 47.7331 77.1023 45.7306 82.8275 44.7755C82.8275 44.7755 86.056 44.4571 85.029 41.1781C84.002 37.8991 78.4545 38.2473 76.8101 40.0772C75.1657 41.9071 73.2292 44.2548 75.226 48.9531C77.2227 53.6514 85.2338 53.7674 85.2338 53.7674C85.2338 53.7674 92.224 53.217 93.4859 52.6933C94.7478 52.1696 99.0063 52.607 100.208 53.5919C101.41 54.5768 102.967 53.7079 102.997 52.8956C103.027 52.0833 102.909 50.7771 99.8556 50.9824C96.8017 51.1877 95.5398 52.2589 92.2511 52.5475C88.9623 52.8361 84.9116 53.4461 81.4481 51.5329C81.4481 51.5329 78.0148 49.7624 77.5149 45.7306C77.5149 45.7306 76.1355 41.2644 78.1021 39.6696C80.0688 38.0747 81.6258 40.5384 81.6258 40.5384C81.6258 40.5384 83.0052 42.889 80.9512 44.106C78.8972 45.323 78.2557 46.5072 78.2557 46.5072C78.2557 46.5072 77.8431 47.3701 78.2798 47.7331H78.2768Z" fill="black"/>
<path d="M17.1757 11.5511H20.6722C20.6722 11.5511 20.2084 12.0986 20.1813 13.3186L20.2687 39.6874C20.2687 39.6874 18.9465 39.0774 17.4497 39.2143L17.1787 11.5511H17.1757Z" fill="black"/>
<path d="M4.15914 52.1994H0C0 52.1994 0.451753 52.2232 0.602338 51.1193V41.3388C0.602338 41.3388 2.43646 41.4013 3.55379 40.0474L3.57186 41.5322C3.57186 41.5322 4.56271 39.2113 6.87569 39.2887C9.18866 39.3661 10.038 39.8719 10.562 40.5205C11.086 41.1692 11.2185 41.797 11.2968 42.3356C11.3752 42.8742 11.33 44.3589 10.2277 44.7993C9.12542 45.2397 8.34539 45.1832 8.34539 45.1832H3.55681L3.56885 44.9511H7.17686C7.17686 44.9511 7.86653 45.0731 8.41165 44.3232C8.95676 43.5734 8.67969 41.5292 8.67969 41.5292C8.67969 41.5292 8.27913 39.9016 6.80943 39.8897C5.33973 39.8778 4.57174 40.0326 3.55982 42.0113L3.53874 51.03C3.53874 51.03 3.55379 51.7947 4.15914 52.1934V52.1994Z" fill="black"/>
<path d="M7.42381 45.1266C7.42381 45.1266 10.2759 44.7517 10.3783 46.778C10.4355 47.9325 10.044 49.6732 9.95665 51.271C9.85124 53.1664 10.9114 54.9219 12.637 55.7581C13.7544 56.2996 14.947 56.5793 15.9077 56.6031C15.9077 56.6031 19.4977 56.5644 21.5848 54.9576C23.6719 53.3509 26.533 53.5681 27.3552 54.2792C28.1774 54.9904 27.5509 56.7013 26.4125 56.5644C25.2741 56.4275 24.1507 56.0467 23.1298 55.9039C22.1088 55.761 20.1392 55.9634 18.2719 56.5317C16.4047 57.1 13.8869 57.0762 13.0015 56.853C10.309 56.1746 9.55609 55.6123 8.66764 54.2197C7.77919 52.8272 7.88761 52.8153 7.49308 51.2502C7.49308 51.2502 7.28528 50.5985 7.42381 48.0337V45.1266Z" fill="black"/>
<path d="M47.7309 0.0296387C47.7732 0.030801 47.8338 0.0331256 47.9126 0.0366125C48.1455 0.0459109 48.3026 0.0505601 48.3838 0.0505601C48.5038 0.0505601 48.7079 0.0447486 48.9961 0.0331256C49.0443 0.030801 49.0802 0.0296387 49.1038 0.0296387V0.249314C49.0932 0.248151 49.0826 0.24757 49.072 0.24757C49.0614 0.246408 49.0455 0.245827 49.0243 0.245827C48.9244 0.245827 48.8567 0.271398 48.8214 0.322539C48.7861 0.37368 48.7685 0.485261 48.7685 0.657282C48.7685 0.686339 48.7691 0.740386 48.7702 0.819423C48.7714 0.897297 48.772 0.961224 48.772 1.0112V2.15316C48.8261 2.15898 48.8885 2.16363 48.9591 2.16711C49.0308 2.16944 49.1202 2.1706 49.2273 2.1706C49.4296 2.1706 49.5749 2.13864 49.6632 2.07471C49.7514 2.01078 49.8261 1.89048 49.8873 1.71381L50.1237 1.7853C50.0814 1.91315 50.0443 2.0381 50.0126 2.16014C49.9808 2.28102 49.9537 2.40015 49.9314 2.51755C49.5549 2.50476 49.2785 2.49662 49.102 2.49314C48.9255 2.48849 48.7732 2.48616 48.6449 2.48616C48.5273 2.48616 48.3967 2.48849 48.2532 2.49314C48.1097 2.49779 47.9208 2.50592 47.6867 2.51755V2.3031H47.7556C47.8379 2.3031 47.8973 2.29438 47.9338 2.27695C47.9714 2.25952 47.9991 2.22755 48.0167 2.18106C48.0297 2.14503 48.0385 2.07936 48.0432 1.98405C48.0491 1.88874 48.052 1.6772 48.052 1.34943V1.12453C48.052 1.0699 48.0526 0.99958 48.0538 0.913569C48.055 0.826397 48.0556 0.767119 48.0556 0.735737C48.0556 0.528847 48.0385 0.394602 48.0044 0.333C47.9714 0.270235 47.9079 0.238853 47.8138 0.238853C47.7914 0.238853 47.7744 0.239434 47.7626 0.240597C47.752 0.240597 47.7414 0.241178 47.7309 0.24234V0.0296387Z" fill="black"/>
<path d="M51.5972 0.564879L51.2514 1.39651C51.2902 1.39767 51.3396 1.39941 51.3996 1.40174C51.4608 1.4029 51.499 1.40348 51.5143 1.40348C51.5743 1.40348 51.679 1.40174 51.8284 1.39825C51.8578 1.39709 51.8796 1.39651 51.8937 1.39651L51.5972 0.564879ZM51.4702 0H52.1143C52.2719 0.426565 52.4225 0.824072 52.566 1.19252C52.7096 1.56097 52.8266 1.85155 52.9172 2.06425C52.9584 2.16769 53.0019 2.23336 53.0478 2.26126C53.0937 2.28915 53.1666 2.3031 53.2666 2.3031H53.286L53.2842 2.51755C53.1395 2.50941 53.006 2.5036 52.8837 2.50011C52.7625 2.49546 52.6578 2.49314 52.5696 2.49314C52.4813 2.49314 52.376 2.49546 52.2537 2.50011C52.1325 2.5036 51.9996 2.50941 51.8549 2.51755V2.3031H51.8796C51.9807 2.3031 52.0519 2.2909 52.0931 2.26649C52.1343 2.24092 52.1549 2.19849 52.1549 2.13922C52.1549 2.12178 52.1513 2.0997 52.1443 2.07297C52.1372 2.04623 52.1272 2.01718 52.1143 1.98579L52.0207 1.74694C51.9584 1.74578 51.8907 1.7452 51.8178 1.7452C51.7449 1.74403 51.6355 1.74345 51.4896 1.74345C51.4355 1.74345 51.3772 1.74403 51.3149 1.7452C51.2525 1.7452 51.1866 1.74578 51.1172 1.74694C51.1114 1.75856 51.1037 1.77484 51.0943 1.79576C51.0178 1.96313 50.9796 2.0718 50.9796 2.12178C50.9796 2.18571 50.9996 2.23104 51.0396 2.25777C51.0796 2.2845 51.1519 2.29961 51.2566 2.3031V2.51755C51.0731 2.50709 50.9467 2.50069 50.8772 2.49837C50.8078 2.49488 50.7502 2.49314 50.7043 2.49314C50.6525 2.49314 50.5896 2.49488 50.5155 2.49837C50.4414 2.50069 50.3214 2.50709 50.1555 2.51755V2.3031C50.3378 2.3031 50.4725 2.21186 50.5596 2.02938C50.5725 2.00265 50.5825 1.98231 50.5896 1.96836C50.7449 1.64756 50.8955 1.32444 51.0414 0.998999C51.1872 0.673554 51.3302 0.340555 51.4702 0Z" fill="black"/>
</svg>
