<svg width="39" height="79" viewBox="0 0 39 79" fill="none" xmlns="http://www.w3.org/2000/svg">
<path d="M19.4523 53.6392H19.5192C29.8456 53.6392 38.2508 45.2368 38.2508 34.9077V18.852C38.2508 8.57376 29.8831 0.190046 19.57 0.120472H19.4095C9.13388 0.179343 0.787628 8.56841 0.787628 18.852V34.9077C0.787628 45.2368 9.16064 53.6392 19.4523 53.6392ZM16.8433 10.8242H22.1951V26.8799H16.8433V10.8242Z" fill="white"/>
<path fill-rule="evenodd" clip-rule="evenodd" d="M9.08896 65.5154C9.18948 65.2967 9.36526 65.1305 9.57776 65.0532C9.79026 64.9758 10.0221 64.9938 10.2225 65.1031L19.9967 70.4417L29.7692 65.1012C29.8686 65.0457 29.9771 65.0123 30.0884 65.0028C30.1997 64.9933 30.3116 65.008 30.4177 65.0461C30.5238 65.0841 30.622 65.1447 30.7065 65.2244C30.7911 65.3041 30.8603 65.4013 30.9104 65.5104C30.9604 65.6195 30.9901 65.7383 30.9979 65.86C31.0057 65.9817 30.9914 66.104 30.9558 66.2196C30.9202 66.3352 30.864 66.442 30.7904 66.5338C30.7168 66.6256 30.6274 66.7006 30.5272 66.7544L20.3757 72.302C20.2581 72.3665 20.1283 72.4 19.9967 72.4C19.8651 72.4 19.7354 72.3665 19.6177 72.302L9.46626 66.7544C9.26613 66.6445 9.11402 66.4524 9.04329 66.2202C8.97257 65.9879 8.98899 65.7345 9.08896 65.5154Z" fill="white"/>
<path fill-rule="evenodd" clip-rule="evenodd" d="M9.08896 65.5154C9.18948 65.2967 9.36526 65.1305 9.57776 65.0532C9.79026 64.9758 10.0221 64.9938 10.2225 65.1031L19.9967 70.4417L29.7692 65.1012C29.8686 65.0457 29.9771 65.0123 30.0884 65.0028C30.1997 64.9933 30.3116 65.008 30.4177 65.0461C30.5238 65.0841 30.622 65.1447 30.7065 65.2244C30.7911 65.3041 30.8603 65.4013 30.9104 65.5104C30.9604 65.6195 30.9901 65.7383 30.9979 65.86C31.0057 65.9817 30.9914 66.104 30.9558 66.2196C30.9202 66.3352 30.864 66.442 30.7904 66.5338C30.7168 66.6256 30.6274 66.7006 30.5272 66.7544L20.3757 72.302C20.2581 72.3665 20.1283 72.4 19.9967 72.4C19.8651 72.4 19.7354 72.3665 19.6177 72.302L9.46626 66.7544C9.26613 66.6445 9.11402 66.4524 9.04329 66.2202C8.97257 65.9879 8.98899 65.7345 9.08896 65.5154Z" fill="white"/>
<path fill-rule="evenodd" clip-rule="evenodd" d="M9.08896 65.5154C9.18948 65.2967 9.36526 65.1305 9.57776 65.0532C9.79026 64.9758 10.0221 64.9938 10.2225 65.1031L19.9967 70.4417L29.7692 65.1012C29.8686 65.0457 29.9771 65.0123 30.0884 65.0028C30.1997 64.9933 30.3116 65.008 30.4177 65.0461C30.5238 65.0841 30.622 65.1447 30.7065 65.2244C30.7911 65.3041 30.8603 65.4013 30.9104 65.5104C30.9604 65.6195 30.9901 65.7383 30.9979 65.86C31.0057 65.9817 30.9914 66.104 30.9558 66.2196C30.9202 66.3352 30.864 66.442 30.7904 66.5338C30.7168 66.6256 30.6274 66.7006 30.5272 66.7544L20.3757 72.302C20.2581 72.3665 20.1283 72.4 19.9967 72.4C19.8651 72.4 19.7354 72.3665 19.6177 72.302L9.46626 66.7544C9.26613 66.6445 9.11402 66.4524 9.04329 66.2202C8.97257 65.9879 8.98899 65.7345 9.08896 65.5154Z" fill="white"/>
<path fill-rule="evenodd" clip-rule="evenodd" d="M12.0647 73.4179C12.1378 73.2406 12.2656 73.1058 12.4202 73.0431C12.5747 72.9804 12.7434 72.995 12.8891 73.0836L19.9976 77.4122L27.1049 73.0821C27.1772 73.0371 27.2561 73.0099 27.337 73.0023C27.418 72.9946 27.4994 73.0065 27.5765 73.0373C27.6537 73.0682 27.7251 73.1173 27.7865 73.1819C27.848 73.2466 27.8984 73.3254 27.9348 73.4138C27.9712 73.5023 27.9928 73.5986 27.9985 73.6973C28.0042 73.796 27.9938 73.8951 27.9678 73.9889C27.9419 74.0826 27.9011 74.1692 27.8476 74.2436C27.7941 74.3181 27.729 74.3789 27.6561 74.4225L20.2732 78.9206C20.1877 78.9728 20.0933 79 19.9976 79C19.9019 79 19.8075 78.9728 19.722 78.9206L12.3391 74.4225C12.1935 74.3334 12.0829 74.1776 12.0315 73.9893C11.98 73.801 11.992 73.5955 12.0647 73.4179Z" fill="white"/>
<path fill-rule="evenodd" clip-rule="evenodd" d="M12.0647 73.4179C12.1378 73.2406 12.2656 73.1058 12.4202 73.0431C12.5747 72.9804 12.7434 72.995 12.8891 73.0836L19.9976 77.4122L27.1049 73.0821C27.1772 73.0371 27.2561 73.0099 27.337 73.0023C27.418 72.9946 27.4994 73.0065 27.5765 73.0373C27.6537 73.0682 27.7251 73.1173 27.7865 73.1819C27.848 73.2466 27.8984 73.3254 27.9348 73.4138C27.9712 73.5023 27.9928 73.5986 27.9985 73.6973C28.0042 73.796 27.9938 73.8951 27.9678 73.9889C27.9419 74.0826 27.9011 74.1692 27.8476 74.2436C27.7941 74.3181 27.729 74.3789 27.6561 74.4225L20.2732 78.9206C20.1877 78.9728 20.0933 79 19.9976 79C19.9019 79 19.8075 78.9728 19.722 78.9206L12.3391 74.4225C12.1935 74.3334 12.0829 74.1776 12.0315 73.9893C11.98 73.801 11.992 73.5955 12.0647 73.4179Z" fill="white"/>
<path fill-rule="evenodd" clip-rule="evenodd" d="M12.0647 73.4179C12.1378 73.2406 12.2656 73.1058 12.4202 73.0431C12.5747 72.9804 12.7434 72.995 12.8891 73.0836L19.9976 77.4122L27.1049 73.0821C27.1772 73.0371 27.2561 73.0099 27.337 73.0023C27.418 72.9946 27.4994 73.0065 27.5765 73.0373C27.6537 73.0682 27.7251 73.1173 27.7865 73.1819C27.848 73.2466 27.8984 73.3254 27.9348 73.4138C27.9712 73.5023 27.9928 73.5986 27.9985 73.6973C28.0042 73.796 27.9938 73.8951 27.9678 73.9889C27.9419 74.0826 27.9011 74.1692 27.8476 74.2436C27.7941 74.3181 27.729 74.3789 27.6561 74.4225L20.2732 78.9206C20.1877 78.9728 20.0933 79 19.9976 79C19.9019 79 19.8075 78.9728 19.722 78.9206L12.3391 74.4225C12.1935 74.3334 12.0829 74.1776 12.0315 73.9893C11.98 73.801 11.992 73.5955 12.0647 73.4179Z" fill="white"/>
</svg>
